# xmcd CD database file
#
# Track frame offsets:
#	150
#	18324
#	33635
#	52096
#	70224
#	88665
#	106921
#	125050
#	142097
#	161409
#	179542
#	196468
#	215766
#	233894
#	251981
#	270135
#	288313
#	306057
#	324844
#	341860
#
# Disc length: 4786 seconds
#
# Revision: 0
# Processed by: cddbd v1.5.2PL0 Copyright (c) Steve Scherf et al.
# Submitted via: CDex 1.51
#
DISCID=3312b014
DTITLE=Cuban Artists - Cuban Journeys CD 1
DYEAR=2008
DGENRE=Salsa
TTITLE0=Drums of Change [Playas del Este Mix] 
TTITLE1=Tell Me U Want Me [Chilli Mix] 
TTITLE2=Colours [Havanna Mix] 
TTITLE3=Flower of Life 
TTITLE4=Bottle [Hermano Mix] 
TTITLE5=Amore [Latin Mix] 
TTITLE6=Love War 
TTITLE7=Dance with U [Cool Mix] 
TTITLE8=Babae [Bolivar String Mix] 
TTITLE9=Wild Rose [Sweet Mix] 
TTITLE10=Follow Me [Nova Mix] 
TTITLE11=Latin Fever [Dance Mix] 
TTITLE12=Mi Vida [Time to Go Mix] 
TTITLE13=Salsa del Rios [Sunlight Mix] 
TTITLE14=Wheel [Musica Dub Mix] 
TTITLE15=Casa Grande 
TTITLE16=Habanera
TTITLE17=Mi Amore [Cubana Mix] 
TTITLE18=Tango! 
TTITLE19=Chocolate [Cerro Mix] 
EXTD=YEAR: 2008
EXTT0=
EXTT1=
EXTT2=
EXTT3=
EXTT4=
EXTT5=
EXTT6=
EXTT7=
EXTT8=
EXTT9=
EXTT10=
EXTT11=
EXTT12=
EXTT13=
EXTT14=
EXTT15=
EXTT16=
EXTT17=
EXTT18=
EXTT19=
PLAYORDER=
